<svg width="245" height="40" viewBox="0 0 245 40" fill="none" xmlns="http://www.w3.org/2000/svg">
<path d="M28.5213 0.656C20.6413 0.650666 12.4213 2.42667 4.12 4.72933C3.06667 4.94267 2.036 5.63067 1.49466 6.484C0.994665 7.28667 0.811998 8.09333 0.655998 8.94267C-0.150668 13.4587 -0.0520019 17.896 0.114665 22.8067C0.150665 23.932 0.322665 25.2707 0.843998 26.0787C1.396 26.896 2.33333 27.416 3.45733 27.588C4.90133 27.8067 6.33733 27.9747 7.776 28.1253L7.45867 37C7.40533 37.7027 7.75467 38.292 8.18267 38.6307C8.568 38.9213 8.996 39.052 9.432 39.084C10.3067 39.1507 11.3387 38.7707 11.8493 37.8027C14.0893 33.4893 15.4947 31.5893 18.292 28.7227C25.5987 28.9067 31.9733 28.5 39.188 27.9627C41.74 27.9013 43.4947 25.812 43.9587 24.1453C45.3387 19.828 45.5573 14.5 45.7027 9.10933C45.7653 6.97333 45.0253 4.88 43.7133 3.77067C42.464 2.76 40.9587 2.396 39.5733 2.02133C35.7293 1.15067 31.8853 0.682666 28.52 0.656H28.5213ZM39.0213 4.03067C40.4067 4.40667 41.6307 4.77067 42.3947 5.396C43.6827 6.76 43.64 7.672 43.6253 9.14533C43.4787 14.3693 43.2293 19.4427 42.0467 23.2867C41.536 24.7187 40.656 25.74 38.98 25.8907C31.6253 26.4373 25.2453 26.86 17.8547 26.6453C17.7113 26.6411 17.5685 26.666 17.4351 26.7188C17.3017 26.7715 17.1804 26.8509 17.0787 26.952C13.9733 30.088 12.3853 32.272 10.016 36.828C9.96267 36.932 9.84267 36.9947 9.69333 37.0053C9.6 37 9.55733 36.9213 9.552 36.8547L9.86933 27.228C9.87044 26.9681 9.77707 26.7166 9.60661 26.5204C9.43614 26.3242 9.20019 26.1966 8.94267 26.1613C7.21688 25.9952 5.49582 25.7832 3.78133 25.5253C3.04133 25.416 2.77066 25.2133 2.568 24.912C2.21333 24.068 2.21866 23.5467 2.19333 22.7387C2.02533 17.864 1.948 13.6093 2.692 9.37467C2.76533 8.74533 3 8.104 3.24933 7.57333C3.66266 6.92667 4.292 6.83333 4.92667 6.656C13.0413 4.416 20.98 2.74 28.4587 2.73467C32.1253 2.864 35.9693 3.23467 39.0213 4.03067V4.03067ZM10.9893 12.2867C9.86933 13.6253 9.97866 15.4427 10.8427 16.6613C11.296 17.3013 12 17.812 12.8547 17.928C13.9693 18.0213 14.6773 17.568 15.4373 17.052C16.8173 15.8547 16.9573 13.76 15.9067 12.2453C15.6526 11.8749 15.3162 11.5683 14.9239 11.3495C14.5316 11.1307 14.094 11.0056 13.6453 10.984C12.448 10.9947 11.636 11.5267 10.9893 12.2867V12.2867ZM23.0827 11.1933C21.9693 11.2293 21.068 12 20.516 12.8333C19.8893 13.78 19.5213 14.9733 20.0307 16.1453C21.0107 18.3907 24.396 18.364 25.7453 16.0787C26.364 15.0253 26.208 13.828 25.7453 12.964C25.2813 12.0933 24.5827 11.3853 23.568 11.224C23.4075 11.1985 23.245 11.1882 23.0827 11.1933V11.1933ZM32.9013 11.4013C32.552 11.3924 32.203 11.431 31.864 11.516C30.5253 11.876 29.3853 13.2547 29.5573 15.0213C29.6453 15.912 30.052 16.7813 30.792 17.3747C31.5307 17.9747 32.5987 18.24 33.7293 18.0107C35.0253 17.744 35.8333 16.6973 36.0987 15.688C36.3693 14.6773 36.3027 13.6507 35.6773 12.8173C35.3533 12.3852 34.9347 12.0329 34.4535 11.7874C33.9724 11.542 33.4414 11.4099 32.9013 11.4013V11.4013ZM13.556 13.0573C13.8013 13.0627 13.9987 13.14 14.2013 13.432C14.6547 14.088 14.5293 15.0787 14.072 15.4787C13.6187 15.8747 13.332 15.912 13.1293 15.8853C12.9307 15.8547 12.728 15.7187 12.5453 15.464C12.2013 14.9733 12.0973 14.1827 12.556 13.6147C12.796 13.292 13.244 13.088 13.556 13.0573ZM23.228 13.2867C23.264 13.292 23.7013 13.5467 23.9107 13.9373C24.1187 14.328 24.1547 14.688 23.9573 15.0213C23.368 16.0213 22.1173 15.7493 21.9307 15.3173C21.8573 15.1507 21.9107 14.484 22.2533 13.9693C22.5973 13.448 23.024 13.2547 23.2267 13.2867H23.228ZM34.004 14.0467C34.0667 14.136 34.2227 14.7027 34.1027 15.1507C33.9827 15.604 33.7853 15.88 33.3053 15.9787C32.692 16.1093 32.348 15.9787 32.0867 15.7707C31.832 15.5627 31.6547 15.208 31.6187 14.828C31.5253 13.8907 31.8627 13.672 32.4 13.5307C33.02 13.3747 33.7227 13.6453 34.004 14.0467ZM58.7653 4.85467C58.7805 4.5906 58.8832 4.33913 59.0573 4.14C59.1441 4.03618 59.2535 3.9536 59.3772 3.89859C59.5008 3.84359 59.6354 3.81762 59.7707 3.82267H66.7347C66.9693 3.82267 67.2147 3.92133 67.464 4.11467C67.5806 4.19945 67.6753 4.31081 67.7402 4.43951C67.8051 4.5682 67.8384 4.71052 67.8373 4.85467V15.9693H79.4907V4.85467C79.4897 4.71678 79.5166 4.58012 79.5697 4.45288C79.6228 4.32564 79.7011 4.21044 79.7999 4.11419C79.8986 4.01794 80.0158 3.94263 80.1443 3.89276C80.2729 3.8429 80.4102 3.81951 80.548 3.824H87.416C87.7293 3.824 88 3.90133 88.2347 4.05733C88.4693 4.21333 88.588 4.464 88.588 4.80667V37.6093C88.588 37.9533 88.484 38.2093 88.2813 38.38C88.0787 38.552 87.812 38.64 87.484 38.64H80.5467C80.2682 38.651 79.9955 38.5583 79.7813 38.38C79.588 38.208 79.4893 37.9533 79.4893 37.6093V24.292H67.8387V37.6093C67.8387 37.9373 67.7347 38.1933 67.5213 38.3693C67.312 38.552 67.0267 38.64 66.6667 38.64H59.7707C59.1147 38.64 58.7813 38.3333 58.7653 37.724V4.85467ZM122.912 38.24C122.727 38.4017 122.505 38.5145 122.265 38.568C122.053 38.6136 121.837 38.6377 121.62 38.64H118.079C117.797 38.64 117.557 38.588 117.355 38.4893C117.156 38.3899 116.98 38.25 116.839 38.0787C116.693 37.8998 116.574 37.7014 116.484 37.4893C116.39 37.2695 116.311 37.0432 116.249 36.812L115.525 33.812C115.292 34.2973 114.948 34.844 114.505 35.464C114.021 36.1169 113.45 36.7001 112.807 37.1973C112.058 37.7712 111.228 38.2296 110.344 38.5573C109.391 38.9267 108.297 39.1093 107.063 39.1093C105.281 39.1093 103.663 38.7653 102.209 38.0787C100.785 37.4133 99.5174 36.4546 98.4893 35.2653C97.4693 34.0787 96.676 32.688 96.1147 31.1053C95.5446 29.4728 95.2591 27.7545 95.2707 26.0253V10.672C95.2707 10.0787 95.396 9.62533 95.6573 9.32267C95.9107 9.016 96.324 8.864 96.8853 8.864H102.303C102.973 8.864 103.432 8.97867 103.688 9.20267C103.937 9.432 104.061 9.86933 104.061 10.5307V25.792C104.061 26.464 104.213 27.0987 104.515 27.7027C105.133 28.9147 106.164 29.866 107.421 30.3853C108.057 30.652 108.703 30.7853 109.36 30.7853C109.921 30.7853 110.505 30.652 111.104 30.3853C111.708 30.1187 112.26 29.7653 112.771 29.3227C113.276 28.8747 113.697 28.3493 114.027 27.7493C114.355 27.1453 114.516 26.5093 114.516 25.8387V10.5987C114.516 10.3333 114.568 10.068 114.667 9.80267C114.754 9.55779 114.914 9.3453 115.125 9.19333C115.328 9.068 115.521 8.98 115.699 8.932C115.88 8.88533 116.088 8.86533 116.323 8.86533H121.62C122.292 8.86533 122.776 9.02533 123.073 9.35467C123.369 9.68267 123.521 10.1253 123.521 10.672V36.9067C123.521 37.2027 123.453 37.4733 123.317 37.724C123.194 37.9674 123.004 38.1712 122.771 38.312L122.912 38.24ZM150.131 35.0053C149.708 35.4267 149.24 35.88 148.735 36.3653C148.224 36.8493 147.667 37.3027 147.057 37.724C146.448 38.1453 145.791 38.4947 145.088 38.7707C144.361 39.0458 143.589 39.1837 142.812 39.1773C140.688 39.1773 138.729 38.7813 136.943 37.984C135.197 37.2185 133.625 36.1057 132.323 34.7133C131.031 33.328 130.027 31.6973 129.296 29.8227C128.573 27.948 128.208 25.932 128.208 23.776C128.208 21.604 128.573 19.5827 129.297 17.7133C130.025 15.8493 131.031 14.224 132.324 12.8387C133.623 11.4465 135.196 10.3367 136.943 9.57867C138.729 8.792 140.688 8.396 142.812 8.396C143.614 8.38653 144.412 8.51322 145.172 8.77067C145.857 9.00758 146.51 9.32966 147.115 9.72933C147.703 10.1253 148.24 10.5627 148.735 11.0573C149.224 11.5467 149.693 12.0307 150.131 12.5V1.78C150.131 1.28133 150.281 0.86 150.584 0.516C150.891 0.172 151.349 0 151.957 0H157.235C157.437 0 157.651 0.0466661 157.875 0.130666C158.104 0.218666 158.312 0.338666 158.5 0.494666C158.687 0.650666 158.839 0.838667 158.953 1.05733C159.073 1.276 159.131 1.516 159.131 1.78133V36.8333C159.131 38.036 158.5 38.64 157.235 38.64H152.635C152.323 38.64 152.083 38.6 151.912 38.52C151.741 38.4459 151.592 38.3299 151.479 38.1827C151.346 38.0119 151.239 37.8222 151.161 37.62C151.068 37.396 150.948 37.1307 150.807 36.8333L150.131 35.0053ZM136.645 23.776C136.645 24.8067 136.807 25.7707 137.131 26.672C137.428 27.533 137.893 28.3262 138.5 29.0053C139.093 29.6613 139.807 30.1827 140.647 30.5627C141.479 30.948 142.407 31.136 143.421 31.136C144.421 31.136 145.364 30.9587 146.249 30.5987C147.129 30.2387 147.901 29.7453 148.556 29.1093C149.217 28.4666 149.754 27.7072 150.14 26.8693C150.539 25.9994 150.766 25.0603 150.807 24.104V23.776C150.807 22.776 150.62 21.8227 150.245 20.916C149.881 20.0281 149.353 19.217 148.688 18.5253C148.02 17.8354 147.224 17.282 146.344 16.896C145.423 16.4913 144.427 16.2868 143.421 16.296C142.407 16.296 141.479 16.496 140.645 16.896C139.823 17.2821 139.092 17.8378 138.5 18.5267C137.897 19.2294 137.432 20.0402 137.131 20.916C136.805 21.8343 136.641 22.8018 136.645 23.776V23.776ZM186.349 35.0053C185.927 35.4267 185.464 35.88 184.953 36.3653C184.447 36.8493 183.891 37.3027 183.281 37.724C182.672 38.1453 182.015 38.4947 181.308 38.7707C180.582 39.0459 179.812 39.1838 179.036 39.1773C176.912 39.1773 174.953 38.7813 173.161 37.984C171.418 37.217 169.849 36.1043 168.548 34.7133C167.255 33.328 166.245 31.6973 165.521 29.8227C164.792 27.948 164.432 25.932 164.432 23.776C164.432 21.604 164.792 19.5827 165.521 17.7133C166.209 15.9095 167.236 14.2547 168.548 12.8387C169.846 11.4477 171.417 10.3382 173.161 9.57867C174.953 8.792 176.912 8.396 179.036 8.396C179.896 8.396 180.683 8.52133 181.391 8.77067C182.077 9.00767 182.731 9.32973 183.337 9.72933C183.921 10.1253 184.464 10.5627 184.953 11.0573C185.447 11.5467 185.912 12.0307 186.349 12.5V1.78C186.349 1.28133 186.505 0.86 186.807 0.516C187.113 0.172 187.567 0 188.177 0H193.453C193.656 0 193.869 0.0466661 194.099 0.130666C194.323 0.218666 194.531 0.338666 194.719 0.494666C194.905 0.650666 195.063 0.838667 195.177 1.05733C195.297 1.276 195.355 1.516 195.355 1.78133V36.8333C195.355 38.036 194.719 38.64 193.453 38.64H188.859C188.547 38.64 188.303 38.6 188.131 38.52C187.961 38.4445 187.812 38.3287 187.697 38.1827C187.566 38.0106 187.459 37.8213 187.38 37.62C187.287 37.396 187.172 37.1307 187.031 36.8333L186.349 35.0053ZM172.869 23.776C172.869 24.8067 173.031 25.7707 173.349 26.672C173.65 27.5323 174.116 28.3251 174.723 29.0053C175.317 29.6613 176.031 30.1827 176.864 30.5627C177.704 30.948 178.631 31.136 179.645 31.136C180.613 31.1432 181.572 30.9607 182.469 30.5987C183.329 30.2566 184.114 29.7508 184.781 29.1093C185.442 28.4665 185.979 27.7071 186.364 26.8693C186.763 25.9994 186.99 25.0603 187.031 24.104V23.776C187.031 21.8161 186.269 19.9329 184.905 18.5253C184.239 17.8332 183.443 17.2795 182.563 16.896C181.644 16.4908 180.649 16.2863 179.645 16.296C178.631 16.296 177.703 16.496 176.864 16.896C176.044 17.2835 175.315 17.8391 174.724 18.5267C174.121 19.2305 173.655 20.0408 173.349 20.916C173.028 21.8352 172.866 22.8023 172.869 23.776V23.776ZM201.589 1.80667C201.589 1.30667 201.713 0.885334 201.963 0.541334C202.213 0.197334 202.645 0.026666 203.256 0.026666H209C209.156 0.026666 209.317 0.0666662 209.489 0.156C209.663 0.24 209.823 0.358667 209.969 0.516C210.12 0.672 210.245 0.86 210.343 1.07867C210.448 1.29733 210.5 1.54133 210.5 1.80667V36.8333C210.5 37.4267 210.328 37.88 209.995 38.1827C209.656 38.4893 209.224 38.64 208.693 38.64H203.255C202.645 38.64 202.215 38.4893 201.964 38.1827C201.713 37.88 201.588 37.4267 201.588 36.8333L201.589 1.80667ZM241.068 35.0787C239.71 36.3342 238.138 37.3374 236.428 38.0413C234.708 38.7547 232.885 39.1093 230.964 39.1093C228.823 39.1093 226.803 38.7187 224.896 37.9373C223.03 37.1853 221.325 36.0822 219.875 34.688C218.43 33.2957 217.268 31.6367 216.453 29.8027C215.609 27.9267 215.187 25.8853 215.187 23.6827C215.187 22.3067 215.355 20.9733 215.693 19.6827C216.027 18.396 216.505 17.188 217.12 16.0627C217.739 14.9379 218.495 13.8936 219.369 12.9533C221.146 11.0563 223.403 9.67587 225.901 8.95867C227.181 8.58267 228.536 8.396 229.959 8.396C231.255 8.396 232.511 8.568 233.735 8.912C236.139 9.58554 238.333 10.8597 240.109 12.6147C240.989 13.4759 241.761 14.4412 242.407 15.4893C243.047 16.5253 243.541 17.636 243.896 18.8173C244.245 19.9947 244.421 21.2133 244.421 22.464C244.421 23.276 244.412 23.9373 244.385 24.4533C244.364 24.9693 244.245 25.38 244.025 25.688C243.807 25.9893 243.443 26.2027 242.932 26.3173C242.427 26.4373 241.677 26.4947 240.692 26.4947H223.812C223.969 27.4947 224.287 28.3333 224.765 29.0053C225.24 29.6773 225.792 30.2133 226.416 30.6093C227.043 31.0093 227.709 31.292 228.412 31.4627C229.062 31.629 229.73 31.7168 230.401 31.724C230.964 31.724 231.541 31.6667 232.135 31.5467C232.72 31.435 233.297 31.2785 233.859 31.0787C234.386 30.8969 234.897 30.6703 235.385 30.4013C235.844 30.14 236.219 29.8693 236.5 29.588C236.749 29.3853 236.964 29.2347 237.14 29.1347C237.316 29.0323 237.515 28.9784 237.719 28.9787C237.921 28.9787 238.131 29.052 238.339 29.192C238.552 29.3333 238.787 29.536 239.052 29.8027L241.536 32.6147C241.709 32.8173 241.817 33 241.864 33.1667C241.912 33.328 241.937 33.5 241.937 33.672C241.943 33.9624 241.851 34.2463 241.677 34.4787C241.504 34.7027 241.303 34.9053 241.068 35.0787V35.0787ZM229.792 15.5467C229.183 15.5467 228.593 15.6667 228.021 15.912C227.453 16.152 226.916 16.4733 226.416 16.88C225.915 17.2894 225.463 17.7546 225.068 18.2667C224.688 18.7544 224.362 19.2814 224.095 19.8387H236.079C235.763 19.2515 235.406 18.6874 235.011 18.1507C234.633 17.6418 234.192 17.1834 233.697 16.7867C233.19 16.39 232.62 16.0817 232.011 15.8747C231.375 15.656 230.636 15.5467 229.792 15.5467V15.5467Z" fill="white"/>
</svg>
